<svg width="256" height="256" viewBox="0 0 256 256" fill="none" xmlns="http://www.w3.org/2000/svg">
<rect width="256" height="256" rx="32" fill="#0F172A"/>
<g transform="translate(16, 27) scale(0.875)">
<path d="M163.581 65.6817C163.581 67.71 164.747 69.5575 166.579 70.4297L193.445 83.2268C194.897 83.9181 196.585 83.9076 198.027 83.1982L223.962 70.4468C225.761 69.5623 226.9 67.732 226.9 65.7273V5.2591C226.9 2.35458 229.255 0 232.159 0H250.741C253.645 0 256 2.35458 256 5.2591V228.712C256 231.616 253.645 233.971 250.741 233.971H98.1976C95.293 233.971 92.9385 231.616 92.9385 228.712V168.117C92.9385 166.113 91.7988 164.282 89.9998 163.398L64.3231 150.773C62.8804 150.064 61.1926 150.054 59.7412 150.745L33.1393 163.415C31.308 164.287 30.1416 166.135 30.1416 168.163V228.712C30.1416 231.616 27.787 233.971 24.8825 233.971H5.2591C2.35458 233.971 0 231.616 0 228.712V5.25909C0 2.35457 2.35458 0 5.2591 0H158.322C161.226 0 163.581 2.35458 163.581 5.2591V65.6817ZM29.3672 92.042C29.3672 93.9908 30.4449 95.7799 32.1677 96.691L158.239 163.363C159.961 164.274 161.039 166.063 161.039 168.012V199.466C161.039 202.37 163.394 204.725 166.298 204.725H221.616C224.52 204.725 226.875 202.37 226.875 199.466V141.679C226.875 139.729 225.796 137.939 224.071 137.029L98.2599 70.6091C96.5352 69.6986 95.4561 67.9086 95.4561 65.9583V34.6331C95.4561 31.7286 93.1015 29.374 90.197 29.374H34.6263C31.7218 29.374 29.3672 31.7286 29.3672 34.6331V92.042Z" fill="white"/>
</g>
</svg>
